<?xml version="1.0" encoding="UTF-8"?>
<!DOCTYPE svg PUBLIC "-//W3C//DTD SVG 1.1//EN" "http://www.w3.org/Graphics/SVG/1.1/DTD/svg11.dtd">
<!-- Creator: CorelDRAW X7 -->
<svg xmlns="http://www.w3.org/2000/svg" xml:space="preserve" width="1876px" height="2475px" version="1.1" style="shape-rendering:geometricPrecision; text-rendering:geometricPrecision; image-rendering:optimizeQuality; fill-rule:evenodd; clip-rule:evenodd"
viewBox="0 0 1946 2568"
 xmlns:xlink="http://www.w3.org/1999/xlink">
 <defs>
  <style type="text/css">
   <![CDATA[
    .fil0 {fill:url(#id0)}
   ]]>
  </style>
  <linearGradient id="id0" gradientUnits="userSpaceOnUse" x1="1330.64" y1="1753.39" x2="615.058" y2="814.134">
   <stop offset="0" style="stop-opacity:1; stop-color:#402579"/>
   <stop offset="1" style="stop-opacity:1; stop-color:#00ACC1"/>
  </linearGradient>
 </defs>
 <g id="Слой_x0020_1">
  <metadata id="CorelCorpID_0Corel-Layer"/>
  <path class="fil0" d="M1738 662c0,22 -18,40 -40,40 -22,0 -40,-18 -40,-40l0 -374 -1370 0 0 541 1410 0c22,0 40,18 40,40 0,22 -18,40 -40,40l-1450 0 -1 0c-22,0 -40,-18 -40,-40l0 -621 0 -1c0,-22 18,-40 40,-40l1450 0 1 0c22,0 40,18 40,40l0 415 0 0 0 0zm-40 -582l-1451 0c-45,0 -87,19 -118,49l0 0c-30,31 -49,73 -49,118l0 2073c0,46 19,88 49,118l0 0c31,30 73,49 118,49l1451 0c46,0 88,-19 118,-49 30,-30 49,-72 49,-118l0 -2073c0,-45 -19,-87 -49,-118l-2 -2c-30,-29 -71,-47 -116,-47l0 0zm-1451 -80l1451 0c67,0 128,27 172,70l3 3c45,45 73,106 73,174l0 2073c0,68 -28,130 -73,175 -45,45 -107,73 -175,73l-1451 0c-68,0 -130,-28 -174,-73l0 0 0 0c-45,-45 -73,-107 -73,-175l0 -2073c0,-68 28,-129 73,-174l0 0c45,-45 106,-73 174,-73zm1411 2280l0 -75 -541 0 0 75 541 0 0 0zm80 -115l0 154 0 1c0,22 -18,40 -40,40l-620 0 -2 0c-22,0 -40,-18 -40,-40l0 -154 0 -1c0,-22 18,-41 40,-41l621 0 1 0c22,0 40,19 40,41zm-80 -248l0 -75 -541 0 0 75 541 0 0 0zm80 -115l0 154 0 1c0,22 -18,40 -40,40l-620 0 -2 0c-22,0 -40,-18 -40,-40l0 -154 0 -1c0,-22 18,-40 40,-40l621 0 1 0c22,0 40,18 40,40zm-1116 518l0 -1 0 -154c0,-22 18,-41 40,-41l1 0 206 0c22,0 40,18 40,41l0 1 0 154c0,22 -18,40 -40,40l-1 0 -206 0c-22,0 -40,-18 -40,-40l0 0zm80 -115l0 75 127 0 0 -75 -127 0zm-288 75l0 -75 -126 0 0 75 126 0 0 0zm81 -115l0 154 0 1c0,22 -18,40 -40,40l-207 0 -1 0c-22,0 -40,-18 -40,-40l0 -154 0 -1c0,-22 18,-41 40,-41l207 0 1 0c22,0 40,19 40,41zm127 -208l0 -1 0 -154c0,-22 18,-40 40,-40l1 0 206 0c22,0 40,18 40,40l0 1 0 154c0,23 -18,41 -40,41l-1 0 -206 0c-22,0 -40,-18 -40,-41l0 0zm80 -115l0 75 127 0 0 -75 -127 0zm-288 75l0 -75 -126 0 0 75 126 0 0 0zm81 -115l0 154 0 1c0,22 -18,40 -40,40l-207 0 -1 0c-22,0 -40,-18 -40,-40l0 -154 0 -1c0,-22 18,-40 40,-40l207 0 1 0c22,0 40,18 40,40zm749 -248l0 -75 -127 0 0 75 127 0 0 0zm80 -115l0 155 0 1c0,22 -18,40 -40,40l-207 0 -1 0c-22,0 -40,-18 -40,-40l0 -155 0 -1c0,-22 18,-40 40,-40l207 0 1 0c22,0 40,18 40,40zm127 156l0 -1 0 -155c0,-22 18,-40 40,-40l1 0 206 0c22,0 40,18 40,40l0 1 0 155c0,22 -18,40 -40,40l-1 0 -206 0c-22,0 -40,-18 -40,-40l0 0zm80 -116l0 75 127 0 0 -75 -127 0zm-909 116l0 -1 0 -155c0,-22 18,-40 40,-40l1 0 206 0c22,0 40,18 40,40l0 1 0 155c0,22 -18,40 -40,40l-1 0 -206 0c-22,0 -40,-18 -40,-40l0 0zm80 -116l0 75 127 0 0 -75 -127 0zm-288 75l0 -75 -126 0 0 75 126 0 0 0zm81 -115l0 155 0 1c0,22 -18,40 -40,40l-207 0 -1 0c-22,0 -40,-18 -40,-40l0 -155 0 -1c0,-22 18,-40 40,-40l207 0 1 0c22,0 40,18 40,40zm749 -247l0 -75 -127 0 0 75 127 0 0 0zm80 -116l0 155 0 1c0,22 -18,40 -40,40l-207 0 -1 0c-22,0 -40,-18 -40,-40l0 -155 0 -1c0,-22 18,-40 40,-40l207 0 1 0c22,0 40,18 40,40zm127 156l0 -1 0 -155c0,-22 18,-40 40,-40l1 0 206 0c22,0 40,18 40,40l0 1 0 155c0,22 -18,40 -40,40l-1 0 -206 0c-22,0 -40,-18 -40,-40l0 0zm80 -115l0 75 127 0 0 -75 -127 0zm-909 115l0 -1 0 -155c0,-22 18,-40 40,-40l1 0 206 0c22,0 40,18 40,40l0 1 0 155c0,22 -18,40 -40,40l-1 0 -206 0c-22,0 -40,-18 -40,-40l0 0zm80 -115l0 75 127 0 0 -75 -127 0zm-288 75l0 -75 -126 0 0 75 126 0 0 0zm81 -116l0 155 0 1c0,22 -18,40 -40,40l-207 0 -1 0c-22,0 -40,-18 -40,-40l0 -155 0 -1c0,-22 18,-40 40,-40l207 0 1 0c22,0 40,18 40,40z"/>
 </g>
</svg>
