<?xml version="1.0" encoding="UTF-8"?>
<!DOCTYPE svg PUBLIC "-//W3C//DTD SVG 1.1//EN" "http://www.w3.org/Graphics/SVG/1.1/DTD/svg11.dtd">
<!-- Creator: CorelDRAW X7 -->
<svg xmlns="http://www.w3.org/2000/svg" xml:space="preserve" width="1315px" height="2475px" version="1.1" style="shape-rendering:geometricPrecision; text-rendering:geometricPrecision; image-rendering:optimizeQuality; fill-rule:evenodd; clip-rule:evenodd"
viewBox="0 0 980 1844"
 xmlns:xlink="http://www.w3.org/1999/xlink">
 <defs>
  <style type="text/css">
   <![CDATA[
    .fil0 {fill:url(#id0)}
   ]]>
  </style>
  <linearGradient id="id0" gradientUnits="userSpaceOnUse" x1="755.407" y1="1166.28" x2="224.256" y2="677.45">
   <stop offset="0" style="stop-opacity:1; stop-color:#402579"/>
   <stop offset="1" style="stop-opacity:1; stop-color:#00ACC1"/>
  </linearGradient>
 </defs>
 <g id="Слой_x0020_1">
  <metadata id="CorelCorpID_0Corel-Layer"/>
  <path class="fil0" d="M29 58c-16,0 -29,-13 -29,-29 0,-16 13,-29 29,-29l922 0c16,0 29,13 29,29 0,16 -13,29 -29,29l-922 0zm230 403l461 0c16,0 29,13 29,29 0,8 -3,15 -9,21l-200 228c-6,7 -15,11 -23,10l-56 0c-9,0 -16,-4 -22,-10l0 0 -201 -230c-11,-12 -10,-30 2,-41 6,-4 12,-7 19,-7l0 0 0 0zm398 58l-334 0 151 173 32 0 151 -173zm-417 813l114 -113c6,-6 14,-9 22,-9l229 1c8,0 15,3 20,8l0 0 116 115c5,6 8,13 8,20l0 0 0 231c0,16 -13,29 -29,29l0 0 -461 0c-16,0 -29,-13 -29,-29l0 -1 0 -230c0,-8 4,-16 10,-22l0 0zm147 -64l-99 98 0 190 404 0 0 -190 -99 -98 -206 0zm132 -173c15,0 28,13 28,29 0,16 -13,29 -28,29l-58 0c-16,0 -29,-13 -29,-29 0,-16 13,-29 29,-29l58 0zm-137 -95c11,-12 29,-13 41,-2 11,10 13,29 2,41l-86 97 -87 97 -79 89 0 349 317 0 317 0 0 -68 0 -97 0 -98 0 -86 -79 -89 -87 -97 -86 -97 -86 -97c0,0 0,0 -1,-1l-86 -97 -86 -97 -87 -97 -86 -98c-5,-5 -8,-12 -8,-19l0 0 0 -389c0,-16 13,-29 29,-29l1 0 345 0 346 0c16,0 28,13 28,29l0 1 0 96 0 98 0 97 0 97c0,8 -3,15 -8,20l-85 97 -87 97 -86 97c-11,12 -29,13 -41,3 -12,-11 -13,-29 -2,-41l86 -97 87 -98 79 -89 0 -86 0 -97 0 -98 0 -68 -317 0 -317 0 0 349 79 89 86 98 87 97 86 97c0,0 0,0 1,0l86 97 86 98 87 97 85 96c5,5 9,12 9,20l0 97 0 98 0 97 0 97 0 0c0,16 -13,29 -29,29l-346 0 -345 0 -1 0c-16,0 -29,-13 -29,-29l0 -389 0 0c0,-6 3,-13 8,-19l86 -97 86 -97 87 -98zm474 -447l-20 9c8,0 15,-3 20,-9zm-827 1291c-16,0 -29,-13 -29,-29 0,-16 13,-29 29,-29l922 0c16,0 29,13 29,29 0,16 -13,29 -29,29l-922 0z"/>
 </g>
</svg>
