<?xml version="1.0" encoding="utf-8"?>
<!-- Generator: Adobe Illustrator 21.1.0, SVG Export Plug-In . SVG Version: 6.00 Build 0)  -->
<svg version="1.1" id="_x31_" xmlns="http://www.w3.org/2000/svg" xmlns:xlink="http://www.w3.org/1999/xlink" x="0px" y="0px"
	 viewBox="0 0 462.5 103.3" style="enable-background:new 0 0 462.5 103.3;" xml:space="preserve">
<style type="text/css">
	.st0{enable-background:new    ;}
	.st1{fill:#282828;}
	.st2{fill:#EA524E;}
</style>
<g class="st0">
	<path class="st1" d="M72.1,103.3c-1.8,0-3.7-0.4-5-1.4c-0.8-0.7-1.9-2.1-1.9-4.4V49.8h10.1v42.6c0,0.6-0.1,1.6,0.7,2.3
		c0.3,0.2,0.9,0.6,2.5,0.6h29.4v8C107.9,103.3,72.1,103.3,72.1,103.3z"/>
</g>
<g class="st0">
	<path class="st1" d="M124.3,55.2c1.9-4.5,4-6,8.8-6c4.6,0,6.9,1.5,8.8,6l20.2,48.1h-10.6L146,89.8h-25.8l-5.4,13.5h-10.6
		L124.3,55.2z M122.8,82.6h20.6l-8.7-21.8c-0.3-0.8-0.8-2.2-1.5-2.2s-1.2,1.5-1.5,2.2L122.8,82.6z"/>
	<path class="st1" d="M198.1,49.8c2.9,0,6.9,0.3,9.7,3.2c3,3.1,3.4,8,3.4,11.5c0,2.9-0.2,5.9-2.5,8.7c-1.5,1.8-3.1,2.6-5,2.8v0.3
		c2.5,0.2,4.6,1.4,5.9,2.8c2.5,2.8,2.5,6.6,2.5,9.6c0,3.5,0,7.8-3.1,11.2c-3.1,3.4-6.5,3.4-9.8,3.4h-25.6c-2.7,0-5.1,0.3-7.3-2.1
		c-0.5-0.6-1.8-2.4-1.8-5.4V57.5c0-2,0.5-4.1,1.7-5.5c1.6-1.9,4-2.2,5.7-2.2H198.1z M174.5,72.2h19.6c2,0,4.1,0,5.5-1.9
		c0.4-0.5,1.1-1.8,1.1-5.4c0-1.5-0.1-4.1-1.8-5.7c-1.5-1.4-3.3-1.4-5-1.4h-16.5c-0.8,0-1.7-0.1-2.3,0.6c-0.6,0.7-0.7,1.8-0.7,2.4
		L174.5,72.2L174.5,72.2z M174.5,91.3c0,1.8,0.2,2.7,0.6,3.1c0.8,0.9,2.5,0.8,3.3,0.8h15.9c1.6,0,4.4-0.1,5.9-1.9
		c1.1-1.4,1.4-3.7,1.4-5.4c0-1.5-0.2-4-1.1-5.4c-0.6-0.8-2.1-2.2-5.4-2.2h-20.5L174.5,91.3L174.5,91.3z"/>
	<path class="st1" d="M218,95.3h29.7c4.8,0,5-4,5-5.8c0-2.1-0.5-4.6-5.2-6l-21.1-6.7c-0.8-0.2-4.2-1.4-6.3-4
		c-2.4-2.9-2.8-7.1-2.8-10.1c0-3.2,0.4-7.1,3.4-9.9c2.8-2.6,6.2-3,8.8-3h30.8v8H233c-1.4,0-3,0.1-4.2,1.2c-1.3,1.2-1.4,3.1-1.4,4.1
		c0,2.4,0.7,4.7,5,6l19.6,6.2c3.6,1.1,6,2.3,7.6,3.8c3.2,3.1,3.5,7.8,3.5,10.3c0,3.4-0.5,7.1-2.7,9.9c-2.7,3.4-6,3.8-9.6,3.8H218
		V95.3z"/>
	<path class="st1" d="M283.3,55.2c1.9-4.5,4-6,8.8-6c4.6,0,6.9,1.5,8.8,6l20.2,48.1h-10.6L305,89.8h-25.8l-5.4,13.5h-10.6
		L283.3,55.2z M281.8,82.6h20.6l-8.7-21.8c-0.3-0.8-0.8-2.2-1.5-2.2s-1.2,1.5-1.5,2.2L281.8,82.6z"/>
	<path class="st1" d="M330.3,103.3c-1.8,0-3.7-0.4-5-1.4c-0.8-0.7-1.9-2.1-1.9-4.4V49.8h10.1v42.6c0,0.6-0.1,1.6,0.7,2.3
		c0.3,0.2,0.9,0.6,2.5,0.6h29.4v8C366.1,103.3,330.3,103.3,330.3,103.3z"/>
	<path class="st1" d="M377.3,103.3c-2.3,0-4.4,0-6.1-1.7c-1.8-1.8-2-4.2-2-6.3V57.4c0-2.1,0.7-4.3,1.8-5.6c1.8-1.9,4.4-2.1,6.4-2.1
		h34.3v8h-28.9c-0.9,0-2,0.1-2.8,0.8c-0.8,0.8-0.8,1.8-0.8,2.6v10.8H411v8h-31.7v12.5c0,0.8,0.3,1.7,0.8,2.1
		c0.6,0.6,1.8,0.7,3.4,0.7h28.6v8h-34.8V103.3z"/>
	<path class="st1" d="M417.4,95.3H447c4.8,0,5-4,5-5.8c0-2.1-0.5-4.6-5.2-6l-21.1-6.7c-0.8-0.2-4.2-1.4-6.3-4
		c-2.4-2.9-2.8-7.1-2.8-10.1c0-3.2,0.4-7.1,3.4-9.9c2.8-2.6,6.2-3,8.8-3h30.8v8h-27.4c-1.4,0-3,0.1-4.2,1.2
		c-1.3,1.2-1.4,3.1-1.4,4.1c0,2.4,0.7,4.7,5,6l19.6,6.2c3.6,1.1,6,2.3,7.6,3.8c3.2,3.1,3.5,7.8,3.5,10.3c0,3.4-0.5,7.1-2.7,9.9
		c-2.7,3.4-6,3.8-9.6,3.8h-32.9v-7.8C417.1,95.3,417.4,95.3,417.4,95.3z"/>
</g>
<path class="st1" d="M44.4,46.4L26.8,4c-0.6-1.4-1.1-2.4-1.7-2.9C24.4,0.4,23.4,0,22.2,0C21,0,20,0.4,19.3,1.1
	c-0.6,0.5-1.1,1.5-1.7,2.9L0,46.5v49c0,2.6,0.5,4.4,1.6,5.6s2.7,1.7,4.8,1.7h31.7c2.1,0,3.7-0.6,4.8-1.7c1.1-1.2,1.6-3,1.6-5.6
	L44.4,46.4L44.4,46.4z M40.1,46.4V54c-0.7-0.4-1.5-0.7-2.4-0.8c-1.5-0.2-2.9,0.2-4,1l-8.2-8.6c0.3-0.6,0.5-1.2,0.6-1.8
	c0.4-3.2-1.8-6.1-5-6.5s-6.1,1.8-6.5,5c-0.2,1.9,0.5,3.7,1.8,5L12.7,55c-0.2,0-0.4-0.1-0.6-0.1c-0.9-0.1-1.9,0-2.7,0.3l-4.7-9.7
	L20.8,4.8c0.4-1,0.9-1.5,1.4-1.5s0.9,0.5,1.4,1.5L40.1,46.4z"/>
<path class="st2" d="M40.1,63.8v32c0,1.2-0.2,2-0.6,2.4s-1.2,0.6-2.3,0.6h-30c-1.1,0-1.9-0.2-2.3-0.6S4.3,97,4.3,95.8V51.4l2.6,5.4
	c-0.7,0.8-1.1,1.8-1.3,3c-0.4,3.2,1.8,6.1,5,6.5s6.1-1.8,6.5-5c0.2-1.9-0.5-3.7-1.7-4.9l3.7-7.7c0.2,0,0.4,0.1,0.6,0.1
	c1.4,0.2,2.8-0.2,3.9-0.9l8.3,8.6c-0.3,0.5-0.4,1.1-0.5,1.7c-0.4,3.2,1.8,6.1,5,6.5C37.7,64.8,39,64.5,40.1,63.8z"/>
</svg>
