<?xml version="1.0" encoding="UTF-8"?>
<!DOCTYPE svg PUBLIC "-//W3C//DTD SVG 1.1//EN" "http://www.w3.org/Graphics/SVG/1.1/DTD/svg11.dtd">
<!-- Creator: CorelDRAW X7 -->
<svg xmlns="http://www.w3.org/2000/svg" xml:space="preserve" width="1913px" height="1614px" version="1.1" style="shape-rendering:geometricPrecision; text-rendering:geometricPrecision; image-rendering:optimizeQuality; fill-rule:evenodd; clip-rule:evenodd"
viewBox="0 0 38692 32649"
 xmlns:xlink="http://www.w3.org/1999/xlink">
 <defs>
  <style type="text/css">
   <![CDATA[
    .fil0 {fill:url(#id0)}
   ]]>
  </style>
  <linearGradient id="id0" gradientUnits="userSpaceOnUse" x1="23062.1" y1="23952.3" x2="15629.9" y2="8696.76">
   <stop offset="0" style="stop-opacity:1; stop-color:#402579"/>
   <stop offset="1" style="stop-opacity:1; stop-color:#00ACC1"/>
  </linearGradient>
 </defs>
 <g id="Слой_x0020_1">
  <metadata id="CorelCorpID_0Corel-Layer"/>
  <path class="fil0" d="M21347 12091c-334,0 -605,271 -605,604 0,334 271,605 605,605l14321 0c244,0 477,49 686,136 222,92 425,229 594,397 167,166 303,367 396,589 87,210 137,444 137,690 0,243 -47,477 -136,692 -89,215 -222,416 -395,588 -169,168 -370,306 -589,396 -211,87 -445,136 -691,136l-8788 0c-334,0 -605,271 -605,605 0,334 271,605 605,605l8789 0c403,0 793,-84 1153,-232 372,-155 707,-381 983,-655 280,-281 502,-616 653,-981 151,-364 232,-757 232,-1155 0,-405 -83,-795 -233,-1153 -154,-369 -382,-705 -660,-982 -278,-277 -612,-502 -980,-655 -358,-149 -747,-232 -1148,-232l-14324 0 0 2zm10248 17535c0,-333 -271,-604 -605,-604 -334,0 -604,271 -604,604 0,243 -48,479 -136,693l-13 30c-87,202 -218,393 -383,558 -168,168 -370,304 -590,396 -211,87 -445,136 -691,136l-7344 0 -5794 -1605c-55,-15 -109,-22 -162,-22l0 -3 -3260 0c-334,0 -605,271 -605,605 0,333 271,604 605,604l3186 0 5767 1598c60,21 125,32 193,32l7414 0c402,0 794,-83 1154,-232 373,-155 708,-380 982,-655 271,-271 490,-597 641,-953l13 -28c151,-363 232,-757 232,-1154zm4675 -4837c0,-334 -271,-605 -605,-605 -333,0 -604,271 -604,605 0,243 -48,478 -135,691l-1 0c-88,214 -223,416 -396,588l-27 31c-163,153 -355,279 -563,366 -211,87 -445,136 -690,136l-8789 0c-334,0 -605,271 -605,605 0,333 271,604 605,604l8789 0c403,0 793,-83 1152,-232 353,-146 672,-359 943,-618l41 -37c280,-280 502,-615 653,-979l-1 0 1 -3c151,-364 232,-754 232,-1152zm2419 -4839c0,-334 -270,-605 -604,-605 -334,0 -605,271 -605,605 0,243 -48,477 -136,691 -89,216 -222,417 -395,589 -169,168 -370,306 -589,396 -211,87 -445,136 -691,136l-8788 0c-334,0 -605,271 -605,605 0,334 271,604 605,604l8788 0c403,0 794,-83 1154,-231 371,-155 707,-381 982,-655 281,-281 503,-616 654,-981 150,-364 230,-756 230,-1154zm-38084 12699l15 0 8447 0c334,0 604,-271 604,-605l0 -16 0 -20540c0,-334 -270,-605 -604,-605l-15 0 -8447 0c-334,0 -605,271 -605,605l0 16 0 20540c0,334 271,605 605,605l0 0zm7857 -1209l-7253 0 0 -19347 7253 0 0 19347 0 0zm16003 -28067l-1625 5690c-90,321 95,655 416,746 320,90 655,-95 746,-416l1620 -5675c7,-22 13,-44 18,-67 51,-233 74,-456 74,-667l-2 0c0,-843 -362,-1513 -883,-2004 -485,-457 -1115,-757 -1712,-893l-31 -8c-246,-53 -490,-79 -718,-79 -247,0 -459,148 -553,360l-5355 9807c-746,973 -1380,1455 -2037,1688 -672,238 -1452,238 -2418,238 -334,0 -604,271 -604,605 0,334 270,604 604,604 1077,0 1945,-1 2820,-309 877,-312 1690,-914 2596,-2098 27,-31 51,-66 72,-104l5216 -9552c39,7 78,14 117,23l16 2c410,92 840,292 1161,595 299,281 506,659 506,1125l-2 0c0,123 -14,253 -42,389z"/>
 </g>
</svg>
