<?xml version="1.0" encoding="utf-8"?>
<!-- Generator: Adobe Illustrator 21.1.0, SVG Export Plug-In . SVG Version: 6.00 Build 0)  -->
<svg version="1.1" id="_x31_" xmlns="http://www.w3.org/2000/svg" xmlns:xlink="http://www.w3.org/1999/xlink" x="0px" y="0px"
	 viewBox="0 0 483.8 85.2" style="enable-background:new 0 0 483.8 85.2;" xml:space="preserve">
<style type="text/css">
	.st0{fill:url(#SVGID_1_);}
	.st1{fill:#71697A;}
	.st2{fill:#402579;}
</style>
<linearGradient id="SVGID_1_" gradientUnits="userSpaceOnUse" x1="51.85" y1="10.534" x2="51.85" y2="88" gradientTransform="matrix(1 0 0 -1 0 88)">
	<stop  offset="0" style="stop-color:#3F2C88"/>
	<stop  offset="1" style="stop-color:#00AFC0"/>
</linearGradient>
<path class="st0" d="M76.4,50.3c14.1,0,23.1-12.5,23.1-25.1S90.5,0,76.4,0H0l3.6,7.2h72.8c9.3,0,15.9,9,15.9,18s-6.6,17.9-15.9,17.9
	H40l0,0h-0.1h-0.1h-0.1h-9.1h-0.3h-7.4L45,85.2h7.5L34.8,50.4h25.6C66.8,50.3,75.9,50.3,76.4,50.3L76.4,50.3z M59.2,85.1l-3.8-7.2
	h44.4l3.9,7.2H59.2L59.2,85.1z M49.8,67.8l-3.7-7.2h44.5l3.7,7.2H49.8z"/>
<g>
	<path class="st1" d="M128.7,71.6h-1.9v7.2h-2.2v-16h2.2v7.1h1.7l5.7-7.1h2.4v0.1l-6.2,7.7l6.7,8.2v0.1h-2.6L128.7,71.6z"/>
	<path class="st1" d="M137.9,72.7c0-1.8,0.5-3.2,1.4-4.3s2.2-1.7,3.9-1.7c1.6,0,3,0.6,3.9,1.7c1,1.1,1.4,2.6,1.4,4.4V73
		c0,1.8-0.5,3.2-1.4,4.4s-2.2,1.7-3.9,1.7s-2.9-0.6-3.9-1.7s-1.4-2.6-1.4-4.3V72.7z M140.1,73c0,1.3,0.3,2.3,0.8,3.1
		c0.5,0.8,1.3,1.2,2.4,1.2c1,0,1.8-0.4,2.4-1.2c0.5-0.8,0.8-1.9,0.8-3.1v-0.2c0-1.2-0.3-2.3-0.8-3.1c-0.5-0.8-1.3-1.2-2.4-1.2
		c-1,0-1.8,0.4-2.3,1.2c-0.5,0.8-0.8,1.9-0.8,3.1L140.1,73L140.1,73z"/>
	<path class="st1" d="M158,76L158,76l4-9.1h2.7v11.9h-2.2v-8.3h-0.1l-3.6,8.3h-1.5l-3.7-8.5h-0.1v8.4h-2.2V66.9h2.8L158,76z"/>
	<path class="st1" d="M177.7,78.8h-2.2V68.6h-5.3v10.2H168V66.9h9.6L177.7,78.8L177.7,78.8z"/>
	<path class="st1" d="M190.5,66.9v11.9h-2.2V68.6h-4V72c0,2.3-0.3,4.1-0.9,5.2c-0.6,1.1-1.7,1.6-3.2,1.6h-0.6V77h0.5
		c0.8,0,1.3-0.4,1.6-1.1c0.3-0.8,0.5-2,0.5-3.8V67L190.5,66.9L190.5,66.9z"/>
	<path class="st1" d="M198.2,79c-1.7,0-3-0.6-3.9-1.7c-1-1.1-1.5-2.5-1.5-4.3v-0.5c0-1.7,0.5-3.1,1.5-4.2s2.2-1.7,3.6-1.7
		c1.6,0,2.8,0.5,3.6,1.5s1.2,2.3,1.2,3.9v1.4H195v0.1c0,1.1,0.3,2.1,0.9,2.8s1.3,1.1,2.3,1.1c0.7,0,1.4-0.1,1.9-0.3
		c0.6-0.2,1-0.5,1.4-0.9l0.8,1.4c-0.4,0.4-1,0.8-1.7,1.1C200,78.9,199.2,79,198.2,79z M197.9,68.4c-0.7,0-1.3,0.3-1.9,0.9
		s-0.8,1.4-0.9,2.3v0.1h5.5v-0.3c0-0.8-0.2-1.6-0.7-2.1S198.8,68.4,197.9,68.4z"/>
	<path class="st1" d="M208.9,73.8h-1.4v5h-2.2V66.9h2.2v5h1.3l3.9-5h2.5V67l-4.7,5.6l5,6.1v0.1h-2.7L208.9,73.8z"/>
	<path class="st1" d="M221.8,77.3c0.7,0,1.3-0.2,1.9-0.7c0.5-0.4,0.8-1,0.8-1.6h1.9v0.1c0,1-0.4,1.9-1.4,2.7s-2,1.2-3.2,1.2
		c-1.7,0-3.1-0.6-4-1.7s-1.4-2.5-1.4-4.3v-0.5c0-1.7,0.5-3.1,1.4-4.2s2.2-1.7,4-1.7c1.4,0,2.5,0.4,3.4,1.2c0.9,0.8,1.3,1.8,1.3,3
		v0.1h-2c0-0.7-0.3-1.3-0.8-1.9c-0.5-0.5-1.2-0.8-1.9-0.8c-1.1,0-1.9,0.4-2.4,1.2c-0.5,0.8-0.7,1.8-0.7,3v0.5c0,1.2,0.2,2.2,0.7,3
		S220.6,77.3,221.8,77.3z"/>
	<path class="st1" d="M238.5,78.8h-2.2v-5H231v5h-2.2V66.9h2.2V72h5.3v-5.1h2.2V78.8z"/>
	<path class="st1" d="M244.2,71.4h3c1.4,0,2.5,0.3,3.3,1s1.2,1.5,1.2,2.6s-0.4,2-1.2,2.7s-1.9,1-3.3,1H242V66.9h2.2V71.4z
		 M244.2,73.1v4h3c0.8,0,1.3-0.2,1.7-0.6s0.6-0.8,0.6-1.4c0-0.5-0.2-1-0.6-1.4c-0.4-0.4-0.9-0.6-1.7-0.6H244.2z M255.8,78.8h-2.2
		V66.9h2.2V78.8z"/>
	<path class="st1" d="M266.9,66.9h2.2v11.9h-2.2v-8.4h-0.1l-5.3,8.5h-2.2v-12h2.2v8.4h0.1L266.9,66.9z M267.5,62L267.5,62
		c0.1,0.9-0.2,1.6-0.8,2.1c-0.6,0.5-1.4,0.8-2.4,0.8s-1.8-0.3-2.4-0.8s-0.9-1.2-0.8-2.1v-0.1h1.7c0,0.5,0.1,0.9,0.4,1.2
		c0.2,0.3,0.6,0.5,1.2,0.5c0.5,0,0.9-0.2,1.2-0.5c0.3-0.3,0.4-0.7,0.4-1.2L267.5,62L267.5,62z"/>
	<path class="st1" d="M287.9,73.3c0,1.7-0.4,3.1-1.2,4.1s-2,1.6-3.4,1.6c-0.7,0-1.4-0.1-1.9-0.4c-0.6-0.2-1-0.6-1.4-1.1v5.8h-2.2
		V66.9h1.7l0.3,1.5c0.4-0.6,0.9-1,1.5-1.3s1.3-0.5,2-0.5c1.5,0,2.6,0.6,3.4,1.8c0.8,1.2,1.2,2.7,1.2,4.6V73.3z M285.8,73.1
		c0-1.3-0.3-2.5-0.8-3.3s-1.3-1.3-2.3-1.3c-0.6,0-1.2,0.1-1.6,0.4s-0.8,0.7-1.1,1.2v5.7c0.3,0.5,0.6,0.9,1.1,1.1s1,0.4,1.6,0.4
		c1,0,1.8-0.4,2.3-1.1c0.5-0.8,0.8-1.7,0.8-2.9V73.1z"/>
	<path class="st1" d="M295.5,79c-1.7,0-3-0.6-4-1.7S290,74.8,290,73v-0.5c0-1.7,0.5-3.1,1.5-4.2s2.2-1.7,3.6-1.7
		c1.6,0,2.8,0.5,3.6,1.5c0.8,1,1.2,2.3,1.2,3.9v1.4h-7.7v0.1c0,1.1,0.3,2.1,0.9,2.8s1.3,1.1,2.3,1.1c0.7,0,1.4-0.1,1.9-0.3
		c0.6-0.2,1-0.5,1.4-0.9l0.8,1.4c-0.4,0.4-1,0.8-1.7,1.1C297.4,78.9,296.5,79,295.5,79z M295.2,68.4c-0.7,0-1.3,0.3-1.9,0.9
		s-0.8,1.4-0.9,2.3v0.1h5.5v-0.3c0-0.8-0.2-1.6-0.7-2.1S296.1,68.4,295.2,68.4z"/>
	<path class="st1" d="M309.3,76L309.3,76l4-9.1h2.7v11.9h-2.2v-8.3h-0.1l-3.6,8.3h-1.5l-3.7-8.5h-0.1v8.4h-2.2V66.9h2.8L309.3,76z"
		/>
	<path class="st1" d="M318.8,72.7c0-1.8,0.5-3.2,1.4-4.3s2.2-1.7,3.9-1.7c1.6,0,2.9,0.6,3.9,1.7s1.4,2.6,1.4,4.4V73
		c0,1.8-0.5,3.2-1.4,4.4s-2.2,1.7-3.9,1.7s-2.9-0.6-3.9-1.7s-1.4-2.6-1.4-4.3V72.7z M320.9,73c0,1.3,0.3,2.3,0.8,3.1
		c0.5,0.8,1.3,1.2,2.4,1.2c1,0,1.8-0.4,2.4-1.2c0.5-0.8,0.8-1.9,0.8-3.1v-0.2c0-1.2-0.3-2.3-0.8-3.1c-0.5-0.8-1.3-1.2-2.4-1.2
		c-1,0-1.8,0.4-2.3,1.2c-0.5,0.8-0.8,1.9-0.8,3.1V73H320.9z"/>
	<path class="st1" d="M341.7,78.8h-2.2v-5h-5.3v5H332V66.9h2.2V72h5.3v-5.1h2.2V78.8z"/>
	<path class="st1" d="M354,68.6h-3.9v10.2h-2.2V68.6H344v-1.7h10V68.6z"/>
	<path class="st1" d="M371.6,78.8h-2.2V68.6h-5.3v10.2H362V66.9h9.6V78.8z"/>
	<path class="st1" d="M374.3,72.7c0-1.8,0.5-3.2,1.4-4.3s2.2-1.7,3.9-1.7c1.6,0,2.9,0.6,3.9,1.7s1.4,2.6,1.4,4.4V73
		c0,1.8-0.5,3.2-1.4,4.4s-2.2,1.7-3.9,1.7s-2.9-0.6-3.9-1.7s-1.4-2.6-1.4-4.3V72.7z M376.4,73c0,1.3,0.3,2.3,0.8,3.1
		c0.5,0.8,1.3,1.2,2.4,1.2c1,0,1.8-0.4,2.4-1.2c0.5-0.8,0.8-1.9,0.8-3.1v-0.2c0-1.2-0.3-2.3-0.8-3.1c-0.5-0.8-1.3-1.2-2.4-1.2
		c-1,0-1.8,0.4-2.3,1.2c-0.5,0.8-0.8,1.9-0.8,3.1V73H376.4z"/>
	<path class="st1" d="M394.3,76L394.3,76l4-9.1h2.7v11.9h-2.2v-8.3h-0.1l-3.6,8.3h-1.5l-3.7-8.5h-0.1v8.4h-2.2V66.9h2.8L394.3,76z"
		/>
	<path class="st1" d="M409.3,79c-1.7,0-3-0.6-4-1.7s-1.5-2.5-1.5-4.3v-0.5c0-1.7,0.5-3.1,1.5-4.2s2.2-1.7,3.6-1.7
		c1.6,0,2.8,0.5,3.6,1.5c0.8,1,1.2,2.3,1.2,3.9v1.4H406v0.1c0,1.1,0.3,2.1,0.9,2.8s1.3,1.1,2.3,1.1c0.7,0,1.4-0.1,1.9-0.3
		c0.6-0.2,1-0.5,1.4-0.9l0.8,1.4c-0.4,0.4-1,0.8-1.7,1.1C411.1,78.9,410.3,79,409.3,79z M408.9,68.4c-0.7,0-1.3,0.3-1.9,0.9
		s-0.8,1.4-0.9,2.3v0.1h5.5v-0.3c0-0.8-0.2-1.6-0.7-2.1S409.8,68.4,408.9,68.4z"/>
	<path class="st1" d="M418.4,66.9v10.2h4.2V66.9h2.2v10.2h4.2V66.9h2.2v10.3h1.9v5.3H431v-3.7h-14.7V66.9H418.4z"/>
	<path class="st1" d="M440,79c-1.7,0-3-0.6-4-1.7s-1.5-2.5-1.5-4.3v-0.5c0-1.7,0.5-3.1,1.5-4.2s2.2-1.7,3.6-1.7
		c1.6,0,2.8,0.5,3.6,1.5c0.8,1,1.2,2.3,1.2,3.9v1.4h-7.7v0.1c0,1.1,0.3,2.1,0.9,2.8s1.3,1.1,2.3,1.1c0.7,0,1.4-0.1,1.9-0.3
		c0.6-0.2,1-0.5,1.4-0.9l0.8,1.4c-0.4,0.4-1,0.8-1.7,1.1C441.8,78.9,441,79,440,79z M439.7,68.4c-0.7,0-1.3,0.3-1.9,0.9
		s-0.8,1.4-0.9,2.3v0.1h5.5v-0.3c0-0.8-0.2-1.6-0.7-2.1S440.6,68.4,439.7,68.4z"/>
	<path class="st1" d="M456.6,78.8h-2.2v-5h-5.3v5H447V66.9h2.2V72h5.3v-5.1h2.2v11.9H456.6z"/>
	<path class="st1" d="M467.2,66.9h2.2v11.9h-2.2v-8.4h-0.1l-5.3,8.5h-2.2v-12h2.2v8.4h0.1L467.2,66.9z"/>
	<path class="st1" d="M480,66.9h2.2v11.9H480v-8.4h-0.1l-5.3,8.5h-2.2v-12h2.2v8.4h0.1L480,66.9z M480.6,62L480.6,62
		c0.1,0.9-0.2,1.6-0.8,2.1c-0.6,0.5-1.4,0.8-2.4,0.8s-1.8-0.3-2.4-0.8s-0.9-1.2-0.8-2.1v-0.1h1.7c0,0.5,0.1,0.9,0.4,1.2
		c0.2,0.3,0.6,0.5,1.2,0.5c0.5,0,0.9-0.2,1.2-0.5c0.3-0.3,0.4-0.7,0.4-1.2L480.6,62L480.6,62z"/>
</g>
<g>
	<path class="st2" d="M226.7,51.6h4.7V47c13.5,0,21.2-7.2,21.2-18.1s-7.7-18-21.2-18V6.8h-4.7v4.1c-13.5,0-21.2,7.1-21.2,18
		S213.2,47,226.7,47V51.6L226.7,51.6z M226.7,42.7c-10.4,0-16.3-4.8-16.3-13.7s5.9-13.8,16.3-13.8V42.7L226.7,42.7z M231.5,42.7
		V15.2c10.4,0,16.3,4.9,16.3,13.8S241.8,42.7,231.5,42.7L231.5,42.7z M281.4,50.8c12.8,0,21.5-10.1,21.5-21.7
		c0-11.7-8.6-21.7-21.3-21.7c-12.8,0-21.5,10.1-21.5,21.7C260,40.8,268.6,50.8,281.4,50.8L281.4,50.8z M281.5,46.4
		c-9.6,0-16.5-7.8-16.5-17.3c0-9.6,6.8-17.3,16.4-17.3s16.5,7.8,16.5,17.3C297.9,38.8,291.1,46.4,281.5,46.4L281.5,46.4z
		 M312.8,50.1h4.7V35.3h10.2c8.9,0,16.5-4.7,16.5-13.7c0-8.4-6.2-13.4-15.7-13.4h-15.7V50.1L312.8,50.1z M317.6,31V12.5h10.6
		c6.8,0,11.3,3.1,11.3,9.1c0,5.6-4.6,9.3-11.5,9.3L317.6,31L317.6,31z M352.9,50.1h4.6V16.2l15.3,22.4h0.2l15.3-22.5v34h4.7v-42
		h-4.8L372.9,31L357.7,8.1h-4.8L352.9,50.1L352.9,50.1z M401.3,50.1h4.9l5-11.1H434l4.9,11.1h5.1L424.8,7.8h-4.4L401.3,50.1
		L401.3,50.1z M413,34.7l9.6-21.4l9.5,21.4H413L413,34.7z M463.3,50.1h4.8V12.4h14.1V8.1h-33v4.3h14.1V50.1z"/>
	<path class="st2" d="M124.7,50.1h4.7V33.8h12l12.2,16.3h5.8L146.5,33c6.6-1.2,11.4-5.3,11.4-12.2c0-3.4-1.2-6.4-3.2-8.4
		c-2.6-2.6-6.8-4.2-11.9-4.2h-18v41.9H124.7z M129.4,29.5v-17h12.9c6.8,0,10.7,3.1,10.7,8.3c0,5.5-4.5,8.7-10.8,8.7H129.4
		L129.4,29.5z M168,50.1h30.3v-4.3h-9.2h-16.3H168V50.1L168,50.1z M172.7,31.1H189h9.2v-4.3h-25.6H168v4.3L172.7,31.1L172.7,31.1z
		 M172.7,12.4h25.6V8.1H168v4.3C168,12.4,172.7,12.4,172.7,12.4z"/>
</g>
</svg>
